<svg width="30" height="30" viewBox="0 0 30 30" fill="none" xmlns="http://www.w3.org/2000/svg">
<path d="M15 30C23.2843 30 30 23.2843 30 15C30 6.71573 23.2843 0 15 0C6.71573 0 0 6.71573 0 15C0 23.2843 6.71573 30 15 30Z" fill="#E4405F"/>
<path d="M15 7.5C12.9639 7.5 12.709 7.50879 11.9092 7.54395C11.1094 7.58203 10.5674 7.70801 10.0898 7.89258C9.59766 8.08301 9.17871 8.34082 8.75977 8.75684C8.34082 9.17285 8.08594 9.5918 7.89551 10.0869C7.71094 10.5645 7.58496 11.1094 7.54688 11.9062C7.50879 12.7061 7.50293 12.9609 7.50293 14.9971C7.50293 17.0332 7.51172 17.2881 7.54688 18.0879C7.58496 18.8848 7.71094 19.4297 7.89551 19.9072C8.08594 20.3994 8.34375 20.8184 8.75977 21.2373C9.17578 21.6533 9.59473 21.9111 10.0898 22.1016C10.5674 22.2861 11.1123 22.4121 11.9092 22.4502C12.709 22.4883 12.9639 22.4941 15 22.4941C17.0361 22.4941 17.291 22.4854 18.0908 22.4502C18.8877 22.4121 19.4326 22.2861 19.9102 22.1016C20.4023 21.9111 20.8213 21.6533 21.2402 21.2373C21.6563 20.8213 21.9141 20.4023 22.1045 19.9072C22.2891 19.4297 22.415 18.8848 22.4531 18.0879C22.4912 17.2881 22.4971 17.0332 22.4971 14.9971C22.4971 12.9609 22.4883 12.7061 22.4531 11.9062C22.415 11.1094 22.2891 10.5645 22.1045 10.0869C21.9141 9.59473 21.6563 9.17578 21.2402 8.75684C20.8242 8.34082 20.4053 8.08301 19.9102 7.89258C19.4326 7.70801 18.8877 7.58203 18.0908 7.54395C17.291 7.50879 17.0361 7.5 15 7.5ZM15 8.85059C17.001 8.85059 17.2412 8.85938 18.0322 8.89453C18.7646 8.92969 19.1602 9.0498 19.4238 9.15527C19.7754 9.29004 20.0244 9.4541 20.2881 9.71484C20.5488 9.97852 20.7129 10.2275 20.8477 10.5791C20.9502 10.8428 21.0732 11.2383 21.1055 11.9707C21.1406 12.7617 21.1494 12.999 21.1494 15.0029C21.1494 17.0068 21.1406 17.2441 21.1025 18.0352C21.0645 18.7676 20.9414 19.1631 20.8389 19.4268C20.6982 19.7783 20.54 20.0273 20.2764 20.291C20.0156 20.5518 19.7607 20.7158 19.415 20.8506C19.1514 20.9531 18.75 21.0762 18.0176 21.1084C17.2207 21.1436 16.9863 21.1523 14.9795 21.1523C12.9727 21.1523 12.7383 21.1436 11.9414 21.1055C11.209 21.0674 10.8076 20.9443 10.5439 20.8418C10.1895 20.7012 9.94336 20.543 9.68262 20.2793C9.41895 20.0186 9.25195 19.7637 9.12012 19.418C9.01758 19.1543 8.89453 18.7529 8.85644 18.0205C8.82715 17.2324 8.81836 16.9893 8.81836 14.9941C8.81836 12.9961 8.82715 12.7529 8.85644 11.9561C8.89453 11.2236 9.01465 10.8223 9.12012 10.5586C9.25195 10.2012 9.41895 9.95801 9.68262 9.69434C9.94336 9.43359 10.1895 9.26367 10.5439 9.13184C10.8076 9.0293 11.2002 8.90625 11.9326 8.86816C12.7295 8.83887 12.9639 8.83008 14.9707 8.83008L15 8.85059ZM15 11.1475C12.873 11.1475 11.1475 12.873 11.1475 15C11.1475 17.127 12.873 18.8525 15 18.8525C17.127 18.8525 18.8525 17.127 18.8525 15C18.8525 12.873 17.127 11.1475 15 11.1475ZM15 17.499C13.6201 17.499 12.501 16.3799 12.501 15C12.501 13.6201 13.6201 12.501 15 12.501C16.3799 12.501 17.499 13.6201 17.499 15C17.499 16.3799 16.3799 17.499 15 17.499ZM19.9043 10.998C19.9043 11.4961 19.5 11.8975 19.0049 11.8975C18.5068 11.8975 18.1055 11.4932 18.1055 10.998C18.1055 10.5029 18.5098 10.0986 19.0049 10.0986C19.5 10.0957 19.9043 10.5 19.9043 10.998Z" fill="white"/>
</svg>
