<svg width="30" height="30" viewBox="0 0 30 30" fill="none" xmlns="http://www.w3.org/2000/svg">
<path d="M25.5 0H4.5C2.01472 0 0 2.01472 0 4.5V25.5C0 27.9853 2.01472 30 4.5 30H25.5C27.9853 30 30 27.9853 30 25.5V4.5C30 2.01472 27.9853 0 25.5 0Z" fill="#1877F2"/>
<path d="M20.8359 19.3359L21.5039 15H17.3438V12.1875C17.3438 11.0039 17.9238 9.84375 19.7871 9.84375H21.6797V6.15234C21.6797 6.15234 19.9629 5.85938 18.3223 5.85938C14.8945 5.85938 12.6563 7.93359 12.6563 11.6953V15H8.84766V19.3359H12.6563V30H17.3438V19.3359H20.8359Z" fill="white"/>
</svg>
