<svg width="72" height="45" viewBox="0 0 72 45" fill="none" xmlns="http://www.w3.org/2000/svg">
<ellipse cx="4.63366" cy="4.95763" rx="4.63366" ry="4.95763" fill="#3D30A2" fill-opacity="0.27"/>
<ellipse cx="20.3168" cy="4.95763" rx="4.63366" ry="4.95763" fill="#3D30A2" fill-opacity="0.27"/>
<ellipse cx="67.3663" cy="4.95763" rx="4.63366" ry="4.95763" fill="#3D30A2" fill-opacity="0.27"/>
<ellipse cx="51.6832" cy="4.95763" rx="4.63366" ry="4.95763" fill="#3D30A2" fill-opacity="0.27"/>
<ellipse cx="36.0001" cy="4.95763" rx="4.63366" ry="4.95763" fill="#3D30A2" fill-opacity="0.27"/>
<ellipse cx="4.63366" cy="4.95763" rx="4.63366" ry="4.95763" fill="#3D30A2" fill-opacity="0.27"/>
<ellipse cx="20.3168" cy="4.95763" rx="4.63366" ry="4.95763" fill="#3D30A2" fill-opacity="0.27"/>
<ellipse cx="67.3663" cy="4.95763" rx="4.63366" ry="4.95763" fill="#3D30A2" fill-opacity="0.27"/>
<ellipse cx="51.6832" cy="4.95763" rx="4.63366" ry="4.95763" fill="#3D30A2" fill-opacity="0.27"/>
<ellipse cx="4.63366" cy="40.0423" rx="4.63366" ry="4.95763" fill="#3D30A2" fill-opacity="0.27"/>
<ellipse cx="20.3168" cy="40.0423" rx="4.63366" ry="4.95763" fill="#3D30A2" fill-opacity="0.27"/>
<ellipse cx="67.3663" cy="40.0423" rx="4.63366" ry="4.95763" fill="#3D30A2" fill-opacity="0.27"/>
<ellipse cx="51.6832" cy="40.0423" rx="4.63366" ry="4.95763" fill="#3D30A2" fill-opacity="0.27"/>
<ellipse cx="36.0001" cy="40.0423" rx="4.63366" ry="4.95763" fill="#3D30A2" fill-opacity="0.27"/>
<ellipse cx="4.63366" cy="40.0423" rx="4.63366" ry="4.95763" fill="#3D30A2" fill-opacity="0.27"/>
<ellipse cx="20.3168" cy="40.0423" rx="4.63366" ry="4.95763" fill="#3D30A2" fill-opacity="0.27"/>
<ellipse cx="67.3663" cy="40.0423" rx="4.63366" ry="4.95763" fill="#3D30A2" fill-opacity="0.27"/>
<ellipse cx="51.6832" cy="40.0423" rx="4.63366" ry="4.95763" fill="#3D30A2" fill-opacity="0.27"/>
<ellipse cx="4.63366" cy="22.5001" rx="4.63366" ry="4.95763" fill="#3D30A2" fill-opacity="0.27"/>
<ellipse cx="20.3168" cy="22.5001" rx="4.63366" ry="4.95763" fill="#3D30A2" fill-opacity="0.27"/>
<ellipse cx="67.3663" cy="22.5001" rx="4.63366" ry="4.95763" fill="#3D30A2" fill-opacity="0.27"/>
<ellipse cx="51.6832" cy="22.5001" rx="4.63366" ry="4.95763" fill="#3D30A2" fill-opacity="0.27"/>
<ellipse cx="36.0001" cy="22.5001" rx="4.63366" ry="4.95763" fill="#3D30A2" fill-opacity="0.27"/>
</svg>
