<svg width="63" height="35" viewBox="0 0 63 35" fill="none" xmlns="http://www.w3.org/2000/svg">
<ellipse cx="3.99711" cy="3.85593" rx="3.99711" ry="3.85593" fill="#3D30A2" fill-opacity="0.27"/>
<ellipse cx="17.5257" cy="3.85593" rx="3.99711" ry="3.85593" fill="#3D30A2" fill-opacity="0.27"/>
<ellipse cx="58.1119" cy="3.85593" rx="3.99711" ry="3.85593" fill="#3D30A2" fill-opacity="0.27"/>
<ellipse cx="44.583" cy="3.85593" rx="3.99711" ry="3.85593" fill="#3D30A2" fill-opacity="0.27"/>
<ellipse cx="31.0545" cy="3.85593" rx="3.99711" ry="3.85593" fill="#3D30A2" fill-opacity="0.27"/>
<ellipse cx="3.99711" cy="3.85593" rx="3.99711" ry="3.85593" fill="#3D30A2" fill-opacity="0.27"/>
<ellipse cx="17.5257" cy="3.85593" rx="3.99711" ry="3.85593" fill="#3D30A2" fill-opacity="0.27"/>
<ellipse cx="58.1119" cy="3.85593" rx="3.99711" ry="3.85593" fill="#3D30A2" fill-opacity="0.27"/>
<ellipse cx="44.583" cy="3.85593" rx="3.99711" ry="3.85593" fill="#3D30A2" fill-opacity="0.27"/>
<ellipse cx="3.99711" cy="31.144" rx="3.99711" ry="3.85593" fill="#3D30A2" fill-opacity="0.27"/>
<ellipse cx="17.5257" cy="31.144" rx="3.99711" ry="3.85593" fill="#3D30A2" fill-opacity="0.27"/>
<ellipse cx="58.1119" cy="31.144" rx="3.99711" ry="3.85593" fill="#3D30A2" fill-opacity="0.27"/>
<ellipse cx="44.583" cy="31.144" rx="3.99711" ry="3.85593" fill="#3D30A2" fill-opacity="0.27"/>
<ellipse cx="31.0545" cy="31.144" rx="3.99711" ry="3.85593" fill="#3D30A2" fill-opacity="0.27"/>
<ellipse cx="3.99711" cy="31.144" rx="3.99711" ry="3.85593" fill="#3D30A2" fill-opacity="0.27"/>
<ellipse cx="17.5257" cy="31.144" rx="3.99711" ry="3.85593" fill="#3D30A2" fill-opacity="0.27"/>
<ellipse cx="58.1119" cy="31.144" rx="3.99711" ry="3.85593" fill="#3D30A2" fill-opacity="0.27"/>
<ellipse cx="44.583" cy="31.144" rx="3.99711" ry="3.85593" fill="#3D30A2" fill-opacity="0.27"/>
<ellipse cx="3.99711" cy="17.5" rx="3.99711" ry="3.85593" fill="#3D30A2" fill-opacity="0.27"/>
<ellipse cx="17.5257" cy="17.5" rx="3.99711" ry="3.85593" fill="#3D30A2" fill-opacity="0.27"/>
<ellipse cx="58.1119" cy="17.5" rx="3.99711" ry="3.85593" fill="#3D30A2" fill-opacity="0.27"/>
<ellipse cx="44.583" cy="17.5" rx="3.99711" ry="3.85593" fill="#3D30A2" fill-opacity="0.27"/>
<ellipse cx="31.0545" cy="17.5" rx="3.99711" ry="3.85593" fill="#3D30A2" fill-opacity="0.27"/>
</svg>
